<svg fill="none" height="16" viewBox="0 0 16 16" width="16" xmlns="http://www.w3.org/2000/svg"><path clip-rule="evenodd" d="m6.04591 3.04173c-.12852.00001-.25575.02565-.37423.07544-.11848.0498-.22583.12273-.31577.21454-.18323.18693-.28586.43826-.28586.70001 0 .26176.10263.51309.28586.70002l3.21399 3.26696-3.21399 3.266c-.18323.1869-.28586.4383-.28586.7 0 .2618.10263.5131.28586.7.08987.0919.19718.165.31568.2149.11849.0498.24577.0755.37432.0755.12856 0 .25581-.0257.3743-.0755.11849-.0499.22583-.123.31571-.2149l3.90498-3.968c.1832-.18693.2859-.43826.2859-.70001s-.1027-.51302-.2859-.69995l-3.90498-3.96802c-.09023-.09122-.1977-.16356-.31617-.21283-.11846-.04927-.24554-.07449-.37384-.07416z" fill-rule="evenodd"/></svg>