<svg width="16" height="16" viewBox="0 0 16 16" fill="none" xmlns="http://www.w3.org/2000/svg">
<path fill-rule="evenodd" clip-rule="evenodd" d="M5 2V5H2V2H5ZM5 0H2C1.46957 0 0.960888 0.210743 0.585815 0.585815C0.210743 0.960888 0 1.46957 0 2V5C0 5.53043 0.210743 6.03911 0.585815 6.41418C0.960888 6.78926 1.46957 7 2 7H5C5.53043 7 6.03911 6.78926 6.41418 6.41418C6.78926 6.03911 7 5.53043 7 5V2C7 1.46957 6.78926 0.960888 6.41418 0.585815C6.03911 0.210743 5.53043 0 5 0ZM14 2V5H11V2H14ZM14 0H11C10.4696 0 9.96089 0.210743 9.58582 0.585815C9.21074 0.960888 9 1.46957 9 2V5C9 5.53043 9.21074 6.03911 9.58582 6.41418C9.96089 6.78926 10.4696 7 11 7H14C14.5304 7 15.0391 6.78926 15.4142 6.41418C15.7893 6.03911 16 5.53043 16 5V2C16 1.46957 15.7893 0.960888 15.4142 0.585815C15.0391 0.210743 14.5304 0 14 0ZM5 11V14H2V11H5ZM5 9H2C1.46957 9 0.960888 9.21074 0.585815 9.58582C0.210743 9.96089 0 10.4696 0 11V14C0 14.5304 0.210743 15.0391 0.585815 15.4142C0.960888 15.7893 1.46957 16 2 16H5C5.53043 16 6.03911 15.7893 6.41418 15.4142C6.78926 15.0391 7 14.5304 7 14V11C7 10.4696 6.78926 9.96089 6.41418 9.58582C6.03911 9.21074 5.53043 9 5 9ZM14 11V14H11V11H14ZM14 9H11C10.4696 9 9.96089 9.21074 9.58582 9.58582C9.21074 9.96089 9 10.4696 9 11V14C9 14.5304 9.21074 15.0391 9.58582 15.4142C9.96089 15.7893 10.4696 16 11 16H14C14.5304 16 15.0391 15.7893 15.4142 15.4142C15.7893 15.0391 16 14.5304 16 14V11C16 10.4696 15.7893 9.96089 15.4142 9.58582C15.0391 9.21074 14.5304 9 14 9Z" />
</svg>

