<svg fill="none" height="16" viewBox="0 0 16 16" width="16" xmlns="http://www.w3.org/2000/svg"><path clip-rule="evenodd" d="m7.99999 2c1.18668 0 2.34671.3519 3.33341 1.01118.9867.65929 1.7557 1.59637 2.2099 2.69272.4541 1.09636.5729 2.30276.3414 3.46665-.2315 1.16385-.803 2.23295-1.6421 3.07205-.8391.8392-1.9082 1.4106-3.07208 1.6421-1.16389.2315-2.37026.1127-3.46662-.3414-1.09635-.4542-2.03346-1.2232-2.69274-2.2099-.65929-.9867-1.01117-2.14671-1.01117-3.3334 0-1.5913.63216-3.11743 1.75738-4.24265 1.12522-1.12521 2.65132-1.75735 4.24262-1.75735zm0-2c-1.58225 0-3.12899.469185-4.44458 1.34824-1.3156.87905-2.34098 2.12849-2.946477 3.5903-.60550067 1.46181-.763882 3.07034-.4552 4.62219.308682 1.55187 1.070577 2.97727 2.189397 4.09617 1.11882 1.1188 2.54428 1.8807 4.09613 2.1894 1.55184.3087 3.16038.1502 4.62214-.4553 1.4619-.6055 2.7113-1.6308 3.5903-2.9464.8791-1.3156 1.3483-2.86235 1.3483-4.4446-.0024-2.121-.846-4.15445-2.3458-5.65422-1.4998-1.499776-3.5332-2.34339789-5.65421-2.34578zm1 5c0 .26522-.10538.51957-.29291.70711-.18754.18753-.44188.29289-.70709.29289-.26522 0-.51956-.10536-.7071-.29289-.18753-.18754-.2929-.44189-.2929-.70711s.10537-.51957.2929-.70711c.18754-.18753.44188-.29289.7071-.29289.26521 0 .51955.10536.70709.29289.18753.18754.29291.44189.29291.70711zm-.89399 7h-.21203c-.23766-.0016-.46502-.0971-.63251-.2657s-.26148-.3966-.26147-.6343v-2.21099c0-.23711.09418-.4645.26184-.63216.16765-.16766.39503-.26185.63214-.26185h.21203c.23711 0 .46449.09419.63214.26185.16766.16766.26185.39505.26185.63216v2.21099c0 .2377-.09399.4657-.26148.6343s-.39485.2641-.63251.2657z" fill="#007aff" fill-rule="evenodd"/></svg>