<svg fill="none" height="159" viewBox="0 0 295 159" width="295" xmlns="http://www.w3.org/2000/svg"><g fill="#abb2c6"><rect height="12" rx="6" width="190" y="130"/><rect height="12" rx="6" width="29" x="266" y="130"/><rect height="12" rx="6" width="104" y="147"/><circle cx="196" cy="140" r="2"/><circle cx="204" cy="140" r="2"/><circle cx="212" cy="140" r="2"/><circle cx="220" cy="140" r="2"/><circle cx="228" cy="140" r="2"/><circle cx="236" cy="140" r="2"/><circle cx="244" cy="140" r="2"/><circle cx="252" cy="140" r="2"/><circle cx="260" cy="140" r="2"/><rect height="12" rx="6" width="217" y="81"/><rect height="12" rx="6" width="22" x="273" y="81"/><rect height="12" rx="6" width="63" y="98"/><circle cx="221" cy="91" r="2"/><circle cx="229" cy="91" r="2"/><circle cx="237" cy="91" r="2"/><circle cx="245" cy="91" r="2"/><circle cx="253" cy="91" r="2"/><circle cx="261" cy="91" r="2"/><circle cx="269" cy="91" r="2"/><rect height="12" rx="6" width="169" y="49"/><rect height="12" rx="6" width="19" x="276" y="49"/><circle cx="175" cy="59" r="2"/><circle cx="183" cy="59" r="2"/><circle cx="191" cy="59" r="2"/><circle cx="199" cy="59" r="2"/><circle cx="207" cy="59" r="2"/><circle cx="215" cy="59" r="2"/><circle cx="223" cy="59" r="2"/><circle cx="231" cy="59" r="2"/><circle cx="239" cy="59" r="2"/><circle cx="247" cy="59" r="2"/><circle cx="255" cy="59" r="2"/><circle cx="263" cy="59" r="2"/><circle cx="271" cy="59" r="2"/><rect height="12" rx="6" width="190"/><rect height="12" rx="6" width="29" x="266"/><rect height="12" rx="6" width="104" y="17"/><circle cx="196" cy="10" r="2"/><circle cx="204" cy="10" r="2"/><circle cx="212" cy="10" r="2"/><circle cx="220" cy="10" r="2"/><circle cx="228" cy="10" r="2"/><circle cx="236" cy="10" r="2"/><circle cx="244" cy="10" r="2"/><circle cx="252" cy="10" r="2"/><circle cx="260" cy="10" r="2"/></g></svg>