<svg fill="none" height="16" viewBox="0 0 16 16" width="16" xmlns="http://www.w3.org/2000/svg"><g clip-rule="evenodd" fill-rule="evenodd"><path d="m11.896 3.19998-3.96399 9.60002-.96-2.4136-.62719-1.58642-1.5496-.6256-2.412-.9744zm0-1.6c-.2094-.00016-.4167.04174-.6096.1232l-9.51358 4c-.2905.12458-.53776.33213-.71079.59663-.173043.26451-.264163.5742-.261942.89027.002222.31607.097684.62447.274422.88651.17674.26205.42689.4661.7191.58659l2.41441.9744.91839.37042.37681.9504.96 2.4136c.11508.294.31526.5469.57492.7265.25966.1795.56699.2776.88267.2815h.0112c.314-.0009.62068-.0949.88117-.2702s.46306-.424.58204-.7146l3.96398-9.60003c.121-.29251.153-.61419.0921-.92481-.0609-.31063-.212-.59641-.4345-.82159-.1464-.14827-.3208-.26605-.5131-.34652-.1922-.08046-.3993-.12202-.6077-.12227zm0 1.6-3.96399 9.60002-.96-2.4136-.62719-1.58642-1.5496-.6256-2.412-.9744zm0-1.6c-.2094-.00016-.4167.04174-.6096.1232l-9.51358 4c-.2905.12458-.53776.33213-.71079.59663-.173043.26451-.264163.5742-.261942.89027.002222.31607.097684.62447.274422.88651.17674.26205.42689.4661.7191.58659l2.41441.9744.91839.37042.37681.9504.96 2.4136c.11508.294.31526.5469.57492.7265.25966.1795.56699.2776.88267.2815h.0112c.314-.0009.62068-.0949.88117-.2702s.46306-.424.58204-.7146l3.96398-9.60003c.121-.29251.153-.61419.0921-.92481-.0609-.31063-.212-.59641-.4345-.82159-.1464-.14827-.3208-.26605-.5131-.34652-.1922-.08046-.3993-.12202-.6077-.12227z"/><path d="m11.896 1.59998c-.2094-.00016-.4167.04174-.6096.1232l-9.51358 4c-.2905.12458-.53776.33213-.71079.59663-.173043.26451-.264163.5742-.261942.89027.002222.31607.097684.62447.274422.88651.17674.26205.42689.4661.7191.58659l2.41441.9744.91839.37042.37681.9504.96 2.4136c.11508.294.31526.5469.57492.7265.25966.1795.56699.2776.88267.2815h.0112c.314-.0009.62068-.0949.88117-.2702s.46306-.424.58204-.7146l3.96398-9.60003c.121-.29251.153-.61419.0921-.92481-.0609-.31063-.212-.59641-.4345-.82159-.1464-.14827-.3208-.26605-.5131-.34652-.1922-.08046-.3993-.12202-.6077-.12227zm-3.96399 11.20002 3.96399-9.60002-9.51278 4 2.412.9744 1.5496.6256.62719 1.58642z"/></g></svg>