<svg fill="none" height="72" viewBox="0 0 72 72" width="72" xmlns="http://www.w3.org/2000/svg" xmlns:xlink="http://www.w3.org/1999/xlink"><filter id="a" color-interpolation-filters="sRGB" filterUnits="userSpaceOnUse" height="67.4096" width="60.7074" x="5.64629" y="3.5061"><feFlood flood-opacity="0" result="BackgroundImageFix"/><feColorMatrix in="SourceAlpha" type="matrix" values="0 0 0 0 0 0 0 0 0 0 0 0 0 0 0 0 0 0 127 0"/><feOffset dy="1.12952"/><feGaussianBlur stdDeviation="2.8238"/><feColorMatrix type="matrix" values="0 0 0 0 1 0 0 0 0 0.376471 0 0 0 0 0.341176 0 0 0 1 0"/><feBlend in2="BackgroundImageFix" mode="normal" result="effect1_dropShadow"/><feBlend in="SourceGraphic" in2="effect1_dropShadow" mode="normal" result="shape"/></filter><filter id="b" color-interpolation-filters="sRGB" filterUnits="userSpaceOnUse" height="53.3807" width="46.5896" x="12.7052" y="10.5203"><feFlood flood-opacity="0" result="BackgroundImageFix"/><feColorMatrix in="SourceAlpha" type="matrix" values="0 0 0 0 0 0 0 0 0 0 0 0 0 0 0 0 0 0 127 0"/><feOffset dy="1.12952"/><feGaussianBlur stdDeviation="2.8238"/><feColorMatrix type="matrix" values="0 0 0 0 1 0 0 0 0 0.376471 0 0 0 0 0.341176 0 0 0 1 0"/><feBlend in2="BackgroundImageFix" mode="normal" result="effect1_dropShadow"/><feBlend in="SourceGraphic" in2="effect1_dropShadow" mode="normal" result="shape"/></filter><filter id="c" color-interpolation-filters="sRGB" filterUnits="userSpaceOnUse" height="26.8022" width="26.8022" x="22.5989" y="19.3292"><feFlood flood-opacity="0" result="BackgroundImageFix"/><feBlend in="SourceGraphic" in2="BackgroundImageFix" mode="normal" result="shape"/><feGaussianBlur result="effect1_foregroundBlur" stdDeviation="2.8238"/></filter><clipPath id="d"><path d="m0 0h72v72h-72z"/></clipPath><g clip-path="url(#d)"><path d="m0 0h72v72h-72z" fill="#fff"/><g filter="url(#a)" opacity=".4"><path clip-rule="evenodd" d="m36 8.02417c-6.5502.00743-12.8299 2.59633-17.4616 7.19873s-7.237 10.8424-7.2445 17.3511c0 22.0318 21.1767 30.7049 22.0837 31.0626 1.6834.6694 3.5614.6694 5.2448 0 .907-.3577 22.0837-9.0308 22.0837-31.0626-.0074-6.5087-2.6128-12.7487-7.2445-17.3511s-10.9114-7.1913-17.4616-7.19873z" fill="#ff3b30" fill-rule="evenodd"/></g><g fill="#ff3b30" filter="url(#b)" opacity=".6"><path clip-rule="evenodd" d="m36 57.1238s-17.6472-7.0142-17.6472-24.5498c0-4.6508 1.8592-9.111 5.1687-12.3996s7.7982-5.1361 12.4785-5.1361c4.6804 0 9.169 1.8475 12.4785 5.1361s5.1687 7.7488 5.1687 12.3996c0 17.5356-17.6472 24.5498-17.6472 24.5498z" fill-rule="evenodd"/><path d="m36 57.1238s-17.6472-7.0142-17.6472-24.5498c0-4.6508 1.8592-9.111 5.1687-12.3996s7.7982-5.1361 12.4785-5.1361c4.6804 0 9.169 1.8475 12.4785 5.1361s5.1687 7.7488 5.1687 12.3996c0 17.5356-17.6472 24.5498-17.6472 24.5498z"/></g><g filter="url(#c)"><circle cx="36" cy="32.7303" fill="#fff" r="7.75352"/></g><circle cx="36" cy="32.7303" fill="#fff" r="7.75352"/></g></svg>