<svg fill="none" height="72" viewBox="0 0 72 72" width="72" xmlns="http://www.w3.org/2000/svg" xmlns:xlink="http://www.w3.org/1999/xlink"><filter id="a" color-interpolation-filters="sRGB" filterUnits="userSpaceOnUse" height="67.4096" width="60.7074" x="5.64629" y="3.50585"><feFlood flood-opacity="0" result="BackgroundImageFix"/><feColorMatrix in="SourceAlpha" type="matrix" values="0 0 0 0 0 0 0 0 0 0 0 0 0 0 0 0 0 0 127 0"/><feOffset dy="1.12952"/><feGaussianBlur stdDeviation="2.8238"/><feColorMatrix type="matrix" values="0 0 0 0 1 0 0 0 0 0.376471 0 0 0 0 0.341176 0 0 0 1 0"/><feBlend in2="BackgroundImageFix" mode="normal" result="effect1_dropShadow"/><feBlend in="SourceGraphic" in2="effect1_dropShadow" mode="normal" result="shape"/></filter><filter id="b" color-interpolation-filters="sRGB" filterUnits="userSpaceOnUse" height="53.3807" width="46.5896" x="12.7052" y="10.52"><feFlood flood-opacity="0" result="BackgroundImageFix"/><feColorMatrix in="SourceAlpha" type="matrix" values="0 0 0 0 0 0 0 0 0 0 0 0 0 0 0 0 0 0 127 0"/><feOffset dy="1.12952"/><feGaussianBlur stdDeviation="2.8238"/><feColorMatrix type="matrix" values="0 0 0 0 1 0 0 0 0 0.376471 0 0 0 0 0.341176 0 0 0 1 0"/><feBlend in2="BackgroundImageFix" mode="normal" result="effect1_dropShadow"/><feBlend in="SourceGraphic" in2="effect1_dropShadow" mode="normal" result="shape"/></filter><filter id="c" color-interpolation-filters="sRGB" filterUnits="userSpaceOnUse" height="26.8022" width="26.8022" x="22.5989" y="19.329"><feFlood flood-opacity="0" result="BackgroundImageFix"/><feBlend in="SourceGraphic" in2="BackgroundImageFix" mode="normal" result="shape"/><feGaussianBlur result="effect1_foregroundBlur" stdDeviation="2.8238"/></filter><g filter="url(#a)" opacity=".4"><path clip-rule="evenodd" d="m36 8.02393c-6.5502.00742-12.8299 2.59637-17.4616 7.19867-4.6317 4.6024-7.237 10.8425-7.2445 17.3512 0 22.0318 21.1767 30.7049 22.0837 31.0626 1.6834.6693 3.5614.6693 5.2448 0 .907-.3577 22.0837-9.0308 22.0837-31.0626-.0074-6.5087-2.6128-12.7488-7.2445-17.3512-4.6317-4.6023-10.9114-7.19125-17.4616-7.19867z" fill="#ff3b30" fill-rule="evenodd"/></g><g fill="#ff3b30" filter="url(#b)" opacity=".6"><path clip-rule="evenodd" d="m36 57.1236s-17.6472-7.0143-17.6472-24.5499c0-4.6507 1.8592-9.111 5.1687-12.3996 3.3095-3.2885 7.7982-5.136 12.4785-5.136 4.6804 0 9.169 1.8475 12.4785 5.136 3.3095 3.2886 5.1687 7.7489 5.1687 12.3996 0 17.5356-17.6472 24.5499-17.6472 24.5499z" fill-rule="evenodd"/><path d="m36 57.1236s-17.6472-7.0143-17.6472-24.5499c0-4.6507 1.8592-9.111 5.1687-12.3996 3.3095-3.2885 7.7982-5.136 12.4785-5.136 4.6804 0 9.169 1.8475 12.4785 5.136 3.3095 3.2886 5.1687 7.7489 5.1687 12.3996 0 17.5356-17.6472 24.5499-17.6472 24.5499z"/></g><g filter="url(#c)"><ellipse cx="36" cy="32.7301" fill="#fff" rx="7.75352" ry="7.75352"/></g><ellipse cx="36" cy="32.7301" fill="#fff" rx="7.75352" ry="7.75352"/></svg>