<svg fill="none" height="20" viewBox="0 0 20 20" width="20" xmlns="http://www.w3.org/2000/svg"><path clip-rule="evenodd" d="m15.968 11.969c-.7729-.5701-1.6236-1.0264-2.526-1.355.6922-.65116 1.1836-1.48685 1.4162-2.40831.2327-.92146.1968-1.89024-.1034-2.79196s-.8521-1.69871-1.5906-2.29687c-.7386-.59817-1.6328-.97252-2.5772-1.07886-.3911-.05067-.787-.05067-1.17803 0-.94427.10656-1.83834.48101-2.57673 1.07916-.73838.59815-1.29026 1.39502-1.59051 2.2966s-.33634 1.87024-.104 2.79166c.23233.92142.72341 1.75717 1.41525 2.40858-.90213.3286-1.75245.7849-2.525 1.355-.31873.2341-.5779.54-.75653.8928-.17862.3528-.27169.7427-.27169 1.1382s.09307.7854.27169 1.1382c.17863.3528.4378.6587.75653.8928 1.72776 1.2788 3.82045 1.969 5.96998 1.969 2.14954 0 4.24224-.6902 5.97004-1.969.3183-.2344.5771-.5403.7555-.8931s.2713-.7426.2713-1.1379-.0929-.7851-.2713-1.1379-.4372-.6587-.7555-.8931zm-8.97703-4.969c-.00102-.74349.27502-1.4607.77423-2.01168s1.18579-.89622 1.92578-.96833c.20647-.02666.41552-.02666.62202 0 .5763.06223 1.1224.29014 1.5719.65613.4496.36599.7835.85442.9614 1.40619.1778.55177.192 1.14322.0408 1.70288s-.4613 1.06351-.8929 1.45062c-.4315.38711-.966.64092-1.5387.73069-.57276.0898-1.15922.01166-1.6885-.22486s-.97869-.62135-1.29389-1.10791c-.31519-.48655-.48266-1.054-.48214-1.63373zm7.78303 7.424c-1.3821 1.0235-3.0563 1.5759-4.77604 1.5759s-3.39399-.5524-4.77601-1.5759c-.06731-.0484-.12212-.1122-.15994-.186s-.05755-.1556-.05755-.2385.01973-.1647.05755-.2385.09263-.1375.15994-.186c1.38227-1.0229 3.05643-1.575 4.77601-1.575 1.71954 0 3.39374.5521 4.77604 1.575.0671.0486.1218.1124.1594.1862.0377.0738.0574.1555.0574.2383 0 .0829-.0197.1645-.0574.2383-.0376.0738-.0923.1376-.1594.1862z" fill-rule="evenodd"/></svg>