<svg fill="none" height="16" viewBox="0 0 16 16" width="16" xmlns="http://www.w3.org/2000/svg"><path clip-rule="evenodd" d="m8.38113 13.8546-.18984.0121h-.19129-5.86667v-5.8667-.19129l.01211-.18984c.19523-3.0614 2.74265-5.48554 5.85456-5.48554 3.2401 0 5.8667 2.6266 5.8667 5.86667 0 3.1119-2.4242 5.6593-5.48557 5.8546zm.11934 2.1454h.01748.01538l-.01643-.0164.01643-.0011.01875-.0013c.85212-.058 1.66762-.2495 2.42572-.5538 2.9436-1.1812 5.0222-4.0615 5.0222-7.4274 0-4.41828-3.5817-8-8-8-3.36586 0-6.24622 2.07863-7.427442 5.02223-.304214.7581-.4957264 1.57357-.5538061 2.42569l-.0012562.01875-.0010647.01643-.016431-.01643v.01538.01748.50047 2.4837 3.383 2.1333h2.13333 3.38297 2.4837zm-3.67182-6.96c.55228 0 1-.44771 1-1 0-.55228-.44772-1-1-1-.55229 0-1 .44772-1 1 0 .55229.44771 1 1 1zm4.14297-1c0 .55229-.44772 1-1 1-.55229 0-1.00001-.44771-1.00001-1 0-.55228.44772-1 1.00001-1 .55228 0 1 .44772 1 1zm2.14268 1c.5523 0 1-.44771 1-1 0-.55228-.4477-1-1-1s-1 .44772-1 1c0 .55229.4477 1 1 1z" fill="#007aff" fill-rule="evenodd"/></svg>