<svg fill="none" height="16" viewBox="0 0 14 16" width="14" xmlns="http://www.w3.org/2000/svg"><path clip-rule="evenodd" d="m7 0c-1.85587.00211736-3.63511.740301-4.9474 2.0526-1.312299 1.31229-2.05048264 3.09153-2.0526 4.9474 0 6.282 6 8.755 6.257 8.857.47695.1908 1.00905.1908 1.486 0 .257-.102 6.257-2.575 6.257-8.857-.0021-1.85587-.7403-3.63511-2.0526-4.9474-1.3123-1.312299-3.09153-2.05048264-4.9474-2.0526zm0 14s-5-2-5-7c0-1.32608.52678-2.59786 1.46446-3.53554s2.20946-1.46446 3.53554-1.46446 2.59786.52678 3.5355 1.46446c.9377.93768 1.4645 2.20946 1.4645 3.53554 0 5-5 7-5 7zm0-9c-.39556 0-.78225.1173-1.11115.33707-.32889.21976-.58524.53211-.73661.89756-.15138.36546-.19097.76759-.1138 1.15555s.26764.74433.54734 1.02404c.27971.2797.63608.47017 1.02404.54734s.79009.03758 1.15555-.1138c.36545-.15137.6778-.40772.89756-.73661.21977-.3289.33707-.71559.33707-1.11115 0-.53043-.21071-1.03914-.58578-1.41422-.37508-.37507-.88379-.58578-1.41422-.58578z" fill-rule="evenodd"/></svg>