<svg fill="none" height="16" viewBox="0 0 16 16" width="16" xmlns="http://www.w3.org/2000/svg"><mask height="14" maskUnits="userSpaceOnUse" width="14" x="1" y="1"><path clip-rule="evenodd" d="m10.9101 9.73956 3.833 3.83454c.2174.2068.3056.5153.2304.8058s-.3019.5174-.5924.5929c-.2904.0754-.599-.0125-.806-.2297l-3.82951-3.8315-.004.003c-.93772.6942-2.07479 1.0665-3.2415 1.0615-3.03339-.0176-5.48689-2.47462-5.5-5.50804-.008555-1.45151.56376-2.84616 1.58944-3.87325 1.02569-1.0271 2.41954-1.601322 3.87106-1.59475 3.03313.01751 5.48641 2.47435 5.49951 5.5075.0051 1.16197-.3629 2.2949-1.05 3.232zm-8.81401-3.2675c.01066 2.4266 1.97342 4.39204 4.4 4.40604 1.16107.0048 2.27588-.4548 3.09627-1.27638.82044-.82161 1.27824-1.93711 1.27174-3.09816-.0107-2.42661-1.97342-4.39205-4.40001-4.406-1.16106-.00483-2.27587.45472-3.09626 1.27633-.8204.82162-1.27828 1.93711-1.27174 3.09817z" fill="none"/></mask><path clip-rule="evenodd" d="m10.9101 9.73956 3.833 3.83454c.2174.2068.3056.5153.2304.8058s-.3019.5174-.5924.5929c-.2904.0754-.599-.0125-.806-.2297l-3.82951-3.8315-.004.003c-.93772.6942-2.07479 1.0665-3.2415 1.0615-3.03339-.0176-5.48689-2.47462-5.5-5.50804-.008555-1.45151.56376-2.84616 1.58944-3.87325 1.02569-1.0271 2.41954-1.601322 3.87106-1.59475 3.03313.01751 5.48641 2.47435 5.49951 5.5075.0051 1.16197-.3629 2.2949-1.05 3.232zm-8.81401-3.2675c.01066 2.4266 1.97342 4.39204 4.4 4.40604 1.16107.0048 2.27588-.4548 3.09627-1.27638.82044-.82161 1.27824-1.93711 1.27174-3.09816-.0107-2.42661-1.97342-4.39205-4.40001-4.406-1.16106-.00483-2.27587.45472-3.09626 1.27633-.8204.82162-1.27828 1.93711-1.27174 3.09817z" fill-rule="evenodd"/></svg>