<svg fill="none" height="16" viewBox="0 0 16 16" width="16" xmlns="http://www.w3.org/2000/svg"><path clip-rule="evenodd" d="m10.4559 0h-4.91179c-4.48271 0-5.54411 1.0614-5.54411 5.54411v4.91179c0 4.4827 1.0614 5.5441 5.54411 5.5441h4.91179c4.4827 0 5.5441-1.0614 5.5441-5.5441v-4.91179c0-4.48271-1.0614-5.54411-5.5441-5.54411zm2.2922 5.08116c.35 0 .429.18066.35.42907-.1234.56932-1.1477 2.0795-1.465 2.54725-.0603.08888-.095.14012-.0932.14012-.1242.20325-.1694.29358 0 .51941.0612.08349.191.21089.3394.35649.1526.14976.3249.31877.4623.47908.4968.56452.8807 1.03882.9823 1.36622.0904.3275-.0677.4969-.4065.4969h-1.163c-.3082 0-.4671-.177-.8057-.5543-.1451-.1617-.3234-.3603-.5606-.5975-.68874-.66616-.9936-.75649-1.16298-.75649-.23712 0-.30487.05646-.30487.3952v1.05009c0 .2823-.09033.4517-.83556.4517-1.23077 0-2.59704-.7453-3.55681-2.13411-1.44531-2.03246-1.84051-3.5681-1.84051-3.87297 0-.16937.05645-.32745.3952-.32745h1.17431c.29358 0 .40649.1242.51941.45165.57586 1.65985 1.53564 3.11645 1.93084 3.11645.14679 0 .21453-.06775.21453-.44037v-1.7163c-.02787-.48784-.19769-.70039-.32362-.85801-.07811-.09775-.13932-.17437-.13932-.28243 0-.1355.11291-.27099.29357-.27099h1.82922c.24841 0 .33874.13549.33874.42907v2.31475c0 .24841.10163.33875.18067.33875.14679 0 .27099-.09034.54199-.36133.83559-.93719 1.43399-2.3825 1.43399-2.3825.0791-.16937.2146-.32745.5081-.32745z" fill-rule="evenodd"/></svg>